<svg version="1.1" id="Layer_1" xmlns="http://www.w3.org/2000/svg" xmlns:xlink="http://www.w3.org/1999/xlink" x="0px" y="0px"
	 width="100%" viewBox="0 0 1440 512" enable-background="new 0 0 1440 512" xml:space="preserve">
<!-- Removed white background for transparency -->
<path fill="#00A85B" opacity="1.000000" stroke="none" 
	d="
M1144.250000,309.750641 
	C1124.934570,290.435852 1105.869141,271.371063 1086.594849,252.097351 
	C1087.846924,250.772186 1088.824219,249.685516 1089.855957,248.653412 
	C1118.369995,220.132416 1146.920898,191.648178 1175.350098,163.042862 
	C1177.681396,160.697128 1179.989990,159.936905 1183.176514,159.940750 
	C1248.005127,160.018997 1312.834839,160.195511 1377.661865,159.863739 
	C1394.191162,159.779160 1411.030640,172.412247 1414.923950,189.380554 
	C1415.648926,192.539673 1415.952271,195.862259 1415.956421,199.110016 
	C1416.019287,248.773071 1416.000122,298.436249 1416.000122,348.099396 
	C1416.000122,349.896790 1416.000122,351.694214 1416.000122,354.000488 
	C1414.030884,354.000488 1412.419312,354.000488 1410.807739,354.000488 
	C1338.146240,354.000488 1265.484741,353.981995 1192.823364,354.064941 
	C1189.767334,354.068420 1187.633301,353.253571 1185.463257,351.050751 
	C1171.897705,337.279938 1158.172363,323.666290 1144.250000,309.750641 
M1309.099365,267.349487 
	C1300.452637,246.821304 1291.847412,226.275482 1283.131714,205.776672 
	C1280.760010,200.198776 1279.429443,192.547165 1275.122192,189.874664 
	C1270.670410,187.112396 1263.177979,189.249466 1257.015747,189.249863 
	C1256.854004,189.249863 1256.692383,189.325546 1256.251831,189.435562 
	C1237.770630,234.224670 1219.224487,279.170990 1200.479736,324.598877 
	C1208.341309,324.598877 1215.434082,324.598877 1222.814209,324.598877 
	C1227.853638,312.589905 1233.028320,300.526245 1237.943237,288.357727 
	C1239.160400,285.344208 1240.541748,284.017578 1244.052002,284.070312 
	C1259.381836,284.300629 1274.718018,284.259735 1290.049438,284.091827 
	C1293.053589,284.058929 1294.439575,285.064636 1295.535034,287.771362 
	C1300.087646,299.020172 1304.815674,310.199158 1309.611206,321.347107 
	C1310.186157,322.683838 1311.522339,324.623383 1312.578857,324.671295 
	C1319.281372,324.975311 1326.004517,324.825775 1333.358765,324.825775 
	C1325.146606,305.360474 1317.276245,286.705139 1309.099365,267.349487 
M1367.581787,312.479675 
	C1367.581787,271.443481 1367.581787,230.407272 1367.581787,189.498688 
	C1360.296509,189.498688 1353.884521,189.498688 1347.474731,189.498688 
	C1347.474731,234.729172 1347.474731,279.597198 1347.474731,324.598267 
	C1354.224121,324.598267 1360.633545,324.598267 1367.581543,324.598267 
	C1367.581543,320.723083 1367.581543,317.095764 1367.581787,312.479675 
z"/>
<path fill="#00A85B" opacity="1.000000" stroke="none" 
	d="
M561.239075,192.112030 
	C572.423035,202.752426 578.478821,216.278366 583.004700,230.683273 
	C586.889404,243.047607 586.940369,255.872894 585.759460,268.415680 
	C584.091187,286.134216 577.399170,302.242584 566.199951,316.392029 
	C556.782104,328.290863 545.501587,337.854767 531.924255,344.488037 
	C515.865234,352.333740 498.638367,355.497681 480.939087,353.862030 
	C454.034149,351.375610 431.721771,339.243591 414.320953,318.672119 
	C403.672974,306.083923 396.828033,291.328644 394.082001,275.037720 
	C389.596954,248.429504 394.125000,223.462524 410.027557,201.299500 
	C424.960999,180.487106 444.807373,166.950134 470.316010,161.915359 
	C493.009521,157.436234 514.426392,160.738388 534.896606,171.041061 
	C539.076477,173.144775 542.906921,175.942719 546.876526,178.998611 
	C545.851013,180.896210 544.801880,182.183914 543.850525,183.540176 
	C524.828613,210.657257 505.820618,237.784088 486.802032,264.903503 
	C484.244843,268.549866 481.645874,272.166992 478.956726,275.951813 
	C468.220398,268.528198 457.895386,261.388977 447.333008,254.085648 
	C443.432617,259.609772 439.818451,264.728485 435.972046,270.176147 
	C452.027618,281.394867 467.756561,292.385376 483.546753,303.418701 
	C484.343323,302.467865 484.803284,301.993774 485.178650,301.460205 
	C509.983276,266.198517 534.785828,230.935410 559.555786,195.649368 
	C560.295471,194.595627 560.685852,193.296661 561.239075,192.112030 
z"/>
<!-- Changed dark elements to white for dark mode visibility -->
<path fill="#FFFFFF" opacity="1.000000" stroke="none" 
	d="
M115.000000,160.000000 
	C137.140396,160.000000 158.780807,160.000000 180.710083,160.000000 
	C180.710083,169.991104 180.710083,179.724670 180.710083,190.000000 
	C178.932419,190.000000 177.159561,190.000000 175.386703,190.000000 
	C143.721954,190.000000 112.057030,190.060806 80.392525,189.971634 
	C66.728035,189.933151 57.464500,200.039764 56.145817,212.083069 
	C55.134331,221.320801 62.167561,233.779312 74.902748,236.022018 
	C77.130127,236.414276 79.379341,236.950134 81.620018,236.957596 
	C102.951820,237.028656 124.292122,236.632858 145.613647,237.106293 
	C165.742172,237.553223 180.671661,247.580841 191.644150,264.128021 
	C197.856110,273.496033 200.703278,284.132019 200.701508,294.897430 
	C200.699356,307.927826 197.049454,320.259430 188.646149,331.057373 
	C178.451263,344.157440 164.994980,350.871277 149.191971,353.886444 
	C148.386002,354.040222 147.536789,353.995667 146.707703,353.995758 
	C113.047836,354.000549 79.387970,353.999878 45.364113,353.999878 
	C45.364113,344.163177 45.364113,334.426636 45.364113,324.000000 
	C46.898037,324.000000 48.650719,324.000000 50.403400,324.000000 
	C80.734901,324.000000 111.067131,323.875977 141.397583,324.055420 
	C155.321274,324.137787 168.755417,312.556549 170.176025,298.793335 
	C171.954178,281.566162 158.985733,267.502960 141.933411,267.116241 
	C120.612335,266.632690 99.271431,266.905182 77.940063,267.025330 
	C54.259373,267.158722 31.034340,247.318039 26.791767,223.582016 
	C21.896078,196.191940 38.518272,170.282410 62.747925,162.819107 
	C67.960808,161.213425 73.553276,160.307144 79.006149,160.123001 
	C90.825340,159.723877 102.667336,160.000000 115.000000,160.000000 
z"/>
<path fill="#FFFFFF" opacity="1.000000" stroke="none" 
	d="
M249.000000,207.000000 
	C249.000000,217.140244 249.000000,226.780487 249.000000,236.709290 
	C280.654968,236.709290 312.050354,236.709290 343.883362,236.709290 
	C343.883362,211.317596 343.883362,185.918304 343.883362,160.261322 
	C354.049225,160.261322 363.781281,160.261322 373.757568,160.261322 
	C373.757568,224.747772 373.757568,289.137939 373.757568,353.764160 
	C363.898071,353.764160 354.166321,353.764160 344.173340,353.764160 
	C344.173340,324.982086 344.173340,296.370453 344.173340,267.379669 
	C312.522278,267.379669 281.126556,267.379669 249.294083,267.379669 
	C249.294083,295.837067 249.294083,324.568817 249.294083,353.649597 
	C239.135788,353.649597 229.401016,353.649597 219.331543,353.649597 
	C219.331543,289.431427 219.331543,225.040863 219.331543,160.324921 
	C228.917328,160.324921 238.651093,160.324921 249.000000,160.324921 
	C249.000000,175.648407 249.000000,191.074203 249.000000,207.000000 
z"/>
<path fill="#FFFFFF" opacity="1.000000" stroke="none" 
	d="
M789.000000,217.999466 
	C789.000000,224.473969 789.000000,230.448593 789.000000,236.709900 
	C820.989441,236.709900 852.718140,236.709900 884.884521,236.709900 
	C884.884521,211.316376 884.884521,185.917145 884.884521,160.260742 
	C894.717163,160.260742 904.115906,160.260742 913.758179,160.260742 
	C913.758179,224.749130 913.758179,289.139343 913.758179,353.764893 
	C904.229858,353.764893 894.831421,353.764893 885.172485,353.764893 
	C885.172485,324.980255 885.172485,296.368408 885.172485,267.378540 
	C853.188171,267.378540 821.458740,267.378540 789.292603,267.378540 
	C789.292603,295.838623 789.292603,324.570374 789.292603,353.650360 
	C779.134094,353.650360 769.399231,353.650360 759.330750,353.650360 
	C759.330750,289.429779 759.330750,225.039215 759.330750,160.324097 
	C768.919006,160.324097 778.652771,160.324097 789.000000,160.324097 
	C789.000000,179.317108 789.000000,198.408340 789.000000,217.999466 
z"/>
<path fill="#FFFFFF" opacity="1.000000" stroke="none" 
	d="
M1134.001465,354.000000 
	C1121.249878,356.182251 1112.698853,351.098022 1104.235840,342.162445 
	C1081.669800,318.336273 1058.034912,295.522491 1034.384766,271.866180 
	C1026.922363,279.404297 1019.420227,286.825653 1012.169800,294.485413 
	C1011.149109,295.563751 1011.054321,297.806030 1011.047119,299.511749 
	C1010.971069,317.483459 1011.000000,335.455597 1011.000000,353.713165 
	C1001.002869,353.713165 991.269775,353.713165 981.267090,353.713165 
	C981.267090,289.297699 981.267090,224.903519 981.267090,160.254486 
	C991.064087,160.254486 1000.796631,160.254486 1010.983398,160.254486 
	C1010.983398,192.056351 1010.983398,223.743652 1010.983398,255.916977 
	C1012.590637,254.149429 1013.698792,252.825409 1014.914734,251.609085 
	C1044.485474,222.027496 1074.036621,192.426010 1103.731812,162.969696 
	C1105.361450,161.353119 1108.187622,160.185791 1110.488770,160.130463 
	C1122.235474,159.848022 1133.992676,160.000000 1145.746094,160.000000 
	C1146.014160,160.440262 1146.282349,160.880524 1146.550415,161.320786 
	C1116.232178,191.704025 1085.914062,222.087250 1055.700928,252.365326 
	C1088.814819,285.474823 1122.470215,319.125763 1156.125610,352.776703 
	C1155.956909,353.184479 1155.788208,353.592224 1155.619507,354.000000 
	C1148.579956,354.000000 1141.540527,354.000000 1134.001465,354.000000 
z"/>
<path fill="#FFFFFF" opacity="1.000000" stroke="none" 
	d="
M611.000000,190.000000 
	C602.195679,190.000000 593.891357,190.000000 585.294556,190.000000 
	C585.294556,180.022980 585.294556,170.293488 585.294556,160.280670 
	C636.988464,160.280670 688.696655,160.280670 740.702698,160.280670 
	C740.702698,169.971390 740.702698,179.700974 740.702698,189.860596 
	C720.004639,189.860596 699.277954,189.860596 678.152100,189.860596 
	C678.152100,244.659866 678.152100,299.034546 678.152100,353.703979 
	C668.026001,353.703979 658.296570,353.703979 648.161377,353.703979 
	C648.161377,299.349457 648.161377,244.974777 648.161377,190.000000 
	C635.678955,190.000000 623.589478,190.000000 611.000000,190.000000 
z"/>
<path fill="#FFFFFF" opacity="1.000000" stroke="none" 
	d="
M949.991699,160.000000 
	C954.464478,160.000000 958.439026,160.000000 962.705627,160.000000 
	C962.705627,224.628906 962.705627,289.004852 962.705627,353.690613 
	C953.052673,353.690613 943.321594,353.690613 933.293823,353.690613 
	C933.293823,289.369995 933.293823,224.994034 933.293823,160.000000 
	C938.639771,160.000000 944.066650,160.000000 949.991699,160.000000 
z"/>
<!-- Light colored accents remain visible on dark backgrounds -->
<path fill="#F5F9F9" opacity="1.000000" stroke="none" 
	d="
M560.919189,191.966614 
	C560.685852,193.296661 560.295471,194.595627 559.555786,195.649368 
	C534.785828,230.935410 509.983276,266.198517 485.178650,301.460205 
	C484.803284,301.993774 484.343323,302.467865 483.546753,303.418701 
	C467.756561,292.385376 452.027618,281.394867 435.972046,270.176147 
	C439.818451,264.728485 443.432617,259.609772 447.333008,254.085648 
	C457.895386,261.388977 468.220398,268.528198 478.956726,275.951813 
	C481.645874,272.166992 484.244843,268.549866 486.802032,264.903503 
	C505.820618,237.784088 524.828613,210.657257 543.850525,183.540176 
	C544.801880,182.183914 545.851013,180.896210 547.070435,179.305923 
	C551.723877,183.297241 556.161621,187.559219 560.919189,191.966614 
z"/>
<path fill="#F6F9F9" opacity="1.000000" stroke="none" 
	d="
M1309.252686,267.699646 
	C1317.276245,286.705139 1325.146606,305.360474 1333.358765,324.825775 
	C1326.004517,324.825775 1319.281372,324.975311 1312.578857,324.671295 
	C1311.522339,324.623383 1310.186157,322.683838 1309.611206,321.347107 
	C1304.815674,310.199158 1300.087646,299.020172 1295.535034,287.771362 
	C1294.439575,285.064636 1293.053589,284.058929 1290.049438,284.091827 
	C1274.718018,284.259735 1259.381836,284.300629 1244.052002,284.070312 
	C1240.541748,284.017578 1239.160400,285.344208 1237.943237,288.357727 
	C1233.028320,300.526245 1227.853638,312.589905 1222.814209,324.598877 
	C1215.434082,324.598877 1208.341309,324.598877 1200.479736,324.598877 
	C1219.224487,279.170990 1237.770630,234.224670 1256.251831,189.435562 
	C1256.692383,189.325546 1256.854004,189.249863 1257.015747,189.249863 
	C1263.177979,189.249466 1270.670410,187.112396 1275.122192,189.874664 
	C1279.429443,192.547165 1280.760010,200.198776 1283.131714,205.776672 
	C1291.847412,226.275482 1300.452637,246.821304 1309.252686,267.699646 
M1257.064941,240.518417 
	C1254.003662,247.969238 1250.942383,255.420059 1247.734375,263.227844 
	C1260.390503,263.227844 1272.389160,263.227844 1284.892334,263.227844 
	C1278.689331,248.289398 1272.680664,233.818985 1266.309448,218.475296 
	C1263.109985,226.107254 1260.237183,232.959900 1257.064941,240.518417 
z"/>
<path fill="#EFF7F5" opacity="1.000000" stroke="none" 
	d="
M1367.581665,312.974060 
	C1367.581543,317.095764 1367.581543,320.723083 1367.581543,324.598267 
	C1360.633545,324.598267 1354.224121,324.598267 1347.474731,324.598267 
	C1347.474731,279.597198 1347.474731,234.729172 1347.474731,189.498688 
	C1353.884521,189.498688 1360.296509,189.498688 1367.581787,189.498688 
	C1367.581787,230.407272 1367.581787,271.443481 1367.581665,312.974060 
z"/>
<path fill="#09AB61" opacity="1.000000" stroke="none" 
	d="
M1257.214722,240.165497 
	C1260.237183,232.959900 1263.109985,226.107254 1266.309448,218.475296 
	C1272.680664,233.818985 1278.689331,248.289398 1284.892334,263.227844 
	C1272.389160,263.227844 1260.390503,263.227844 1247.734375,263.227844 
	C1250.942383,255.420059 1254.003662,247.969238 1257.214722,240.165497 
z"/>
</svg>